name Walk4.mot
datacolumns 19
datarows 25
range 1.60700000 1.63100000
endheader

                time	   L_ground_force_vx	   L_ground_force_vy	   L_ground_force_vz	   L_ground_force_px	   L_ground_force_py	   L_ground_force_pz	   R_ground_force_vx	   R_ground_force_vy	   R_ground_force_vz	   R_ground_force_px	   R_ground_force_py	   R_ground_force_pz	   L_ground_torque_x	   L_ground_torque_y	   L_ground_torque_z	   R_ground_torque_x	   R_ground_torque_y	   R_ground_torque_z	
          1.60700000	         19.46936639	        542.65844880	         36.34534883	         -0.30327009	          0.00000000	         -0.08035873	         -0.01395863	          0.20358545	          0.00696823	          0.00013047	          0.00000000	          0.00005758	          0.00000000	          0.58247303	          0.00000000	          0.00000000	          0.00022177	          0.00000000	
          1.60800000	         19.94496522	        543.73083211	         36.50328224	         -0.30311589	          0.00000000	         -0.08042822	         -0.01531284	          0.21627403	          0.00711842	          0.00013700	          0.00000000	          0.00006039	          0.00000000	          0.58424303	          0.00000000	          0.00000000	          0.00024065	          0.00000000	
          1.60900000	         20.42068761	        544.81994607	         36.66191224	         -0.30296225	          0.00000000	         -0.08049639	         -0.01672966	          0.22924850	          0.00725317	          0.00014357	          0.00000000	          0.00006322	          0.00000000	          0.58569261	          0.00000000	          0.00000000	          0.00026030	          0.00000000	
          1.61000000	         20.89640715	        545.92595040	         36.82108900	         -0.30280910	          0.00000000	         -0.08056318	         -0.01820904	          0.24248185	          0.00737049	          0.00015016	          0.00000000	          0.00006605	          0.00000000	          0.58680432	          0.00000000	          0.00000000	          0.00028069	          0.00000000	
          1.61100000	         21.37200602	        547.04899161	         36.98066685	         -0.30265637	          0.00000000	         -0.08062857	         -0.01975069	          0.25594348	          0.00746827	          0.00015674	          0.00000000	          0.00006887	          0.00000000	          0.58756094	          0.00000000	          0.00000000	          0.00030182	          0.00000000	
          1.61200000	         21.84737619	        548.18920199	         37.14050514	         -0.30250402	          0.00000000	         -0.08069254	         -0.02135403	          0.26959902	          0.00754429	          0.00016328	          0.00000000	          0.00007166	          0.00000000	          0.58794559	          0.00000000	          0.00000000	          0.00032367	          0.00000000	
          1.61300000	         22.32242060	        549.34669821	         37.30046881	         -0.30235198	          0.00000000	         -0.08075506	         -0.02301817	          0.28341007	          0.00759622	          0.00016976	          0.00000000	          0.00007442	          0.00000000	          0.58794176	          0.00000000	          0.00000000	          0.00034621	          0.00000000	
          1.61400000	         22.79705419	        550.52157982	         37.46042869	         -0.30220023	          0.00000000	         -0.08081611	         -0.02474189	          0.29733406	          0.00762161	          0.00017614	          0.00000000	          0.00007713	          0.00000000	          0.58753344	          0.00000000	          0.00000000	          0.00036942	          0.00000000	
          1.61500000	         23.27120462	        551.71392806	         37.62026190	         -0.30204871	          0.00000000	         -0.08087568	         -0.02652360	          0.31132397	          0.00761788	          0.00018239	          0.00000000	          0.00007978	          0.00000000	          0.58670524	          0.00000000	          0.00000000	          0.00039326	          0.00000000	
          1.61600000	         23.74481269	        552.92380513	         37.77985226	         -0.30189738	          0.00000000	         -0.08093378	         -0.02836134	          0.32532815	          0.00758234	          0.00018846	          0.00000000	          0.00008234	          0.00000000	          0.58544260	          0.00000000	          0.00000000	          0.00041768	          0.00000000	
          1.61700000	         24.21783247	        554.15125388	         37.93909060	         -0.30174621	          0.00000000	         -0.08099038	         -0.03025272	          0.33929010	          0.00751218	          0.00019432	          0.00000000	          0.00008479	          0.00000000	          0.58373189	          0.00000000	          0.00000000	          0.00044266	          0.00000000	
          1.61800000	         24.69023117	        555.39629771	         38.09787490	         -0.30159516	          0.00000000	         -0.08104550	         -0.03219492	          0.35314823	          0.00740448	          0.00019992	          0.00000000	          0.00008713	          0.00000000	          0.58156059	          0.00000000	          0.00000000	          0.00046812	          0.00000000	
          1.61900000	         25.16198900	        556.65894034	         38.25611017	         -0.30144420	          0.00000000	         -0.08109913	         -0.03418463	          0.36683565	          0.00725619	          0.00020521	          0.00000000	          0.00008932	          0.00000000	          0.57891733	          0.00000000	          0.00000000	          0.00049402	          0.00000000	
          1.62000000	         25.63309892	        557.93916537	         38.41370820	         -0.30129331	          0.00000000	         -0.08115127	         -0.03621806	          0.38027998	          0.00706415	          0.00021015	          0.00000000	          0.00009135	          0.00000000	          0.57579187	          0.00000000	          0.00000000	          0.00052028	          0.00000000	
          1.62100000	         26.10356647	        559.23693554	         38.57058725	         -0.30114246	          0.00000000	         -0.08120193	         -0.03829086	          0.39340310	          0.00682509	          0.00021468	          0.00000000	          0.00009318	          0.00000000	          0.57217511	          0.00000000	          0.00000000	          0.00054684	          0.00000000	
          1.62200000	         26.57340958	        560.55219203	         38.72667202	         -0.30099164	          0.00000000	         -0.08125110	         -0.04039815	          0.40612097	          0.00653564	          0.00021874	          0.00000000	          0.00009481	          0.00000000	          0.56805912	          0.00000000	          0.00000000	          0.00057361	          0.00000000	
          1.62300000	         27.04265843	        561.88485383	         38.88189376	         -0.30084083	          0.00000000	         -0.08129879	         -0.04253441	          0.41834340	          0.00619229	          0.00022228	          0.00000000	          0.00009619	          0.00000000	          0.56343705	          0.00000000	          0.00000000	          0.00060049	          0.00000000	
          1.62400000	         27.51135536	        563.23481718	         39.03619063	         -0.30069004	          0.00000000	         -0.08134499	         -0.04469352	          0.42997389	          0.00579146	          0.00022523	          0.00000000	          0.00009731	          0.00000000	          0.55830313	          0.00000000	          0.00000000	          0.00062739	          0.00000000	
          1.62500000	         27.97955482	        564.60195501	         39.18950813	         -0.30053926	          0.00000000	         -0.08138970	         -0.04686869	          0.44090938	          0.00532947	          0.00022752	          0.00000000	          0.00009812	          0.00000000	          0.55265265	          0.00000000	          0.00000000	          0.00065420	          0.00000000	
          1.62600000	         28.44732322	        565.98611637	         39.34179969	         -0.30038850	          0.00000000	         -0.08143292	         -0.04905242	          0.45104014	          0.00480254	          0.00022909	          0.00000000	          0.00009861	          0.00000000	          0.54648189	          0.00000000	          0.00000000	          0.00068080	          0.00000000	
          1.62700000	         28.91473858	        567.38712639	         39.49302722	         -0.30023774	          0.00000000	         -0.08147466	         -0.05123649	          0.46024955	          0.00420681	          0.00022986	          0.00000000	          0.00009873	          0.00000000	          0.53978808	          0.00000000	          0.00000000	          0.00070707	          0.00000000	
          1.62800000	         29.38188984	        568.80478699	         39.64316161	         -0.30008700	          0.00000000	         -0.08151492	         -0.05341192	          0.46841395	          0.00353834	          0.00022974	          0.00000000	          0.00009846	          0.00000000	          0.53256941	          0.00000000	          0.00000000	          0.00073285	          0.00000000	
          1.62900000	         29.84887596	        570.23887827	         39.79218312	         -0.29993628	          0.00000000	         -0.08155369	         -0.05556891	          0.47540252	          0.00279315	          0.00022867	          0.00000000	          0.00009776	          0.00000000	          0.52482506	          0.00000000	          0.00000000	          0.00075800	          0.00000000	
          1.63000000	         30.31580482	        571.68915982	         39.94008154	         -0.29978559	          0.00000000	         -0.08159099	         -0.05769684	          0.48107714	          0.00196718	          0.00022656	          0.00000000	          0.00009659	          0.00000000	          0.51655527	          0.00000000	          0.00000000	          0.00078235	          0.00000000	
          1.63100000	         30.78279208	        573.15537114	         40.08685613	         -0.29963492	          0.00000000	         -0.08162680	         -0.05978423	          0.48529226	          0.00105632	          0.00022331	          0.00000000	          0.00009491	          0.00000000	          0.50776143	          0.00000000	          0.00000000	          0.00080574	          0.00000000	
